# File created by Blade
# Date/Time:  Thu Sep 25 14:26:36 2014
# Frame Rate: 120.000 fps
#------------------------------------------------------
:FULLY-SPECIFIED
:DEGREES
1227
root 7.455539 24.969624 -1.632697 -50.533928 84.301937 40.495628
Spine -42.335268 -8.002783 0.253967
Head -99.120789 15.048496 17.338755
LeftShoulder -38.824528 17.588034 51.013257
LeftArm 125.113414 -51.187976 -127.005111
LeftForeArm 46.002986 -0.000000 63.866758
LeftHand -34.062456 -0.000000 120.194613
LeftHandThumb1 -26.253704 0.000000 33.147579
RightShoulder -18.975660 36.691576 -40.029364
RightArm 202.361590 118.140611 197.773360
RightForeArm -46.886093 -0.000000 61.377902
RightHand -7.947602 -0.000000 -84.152050
RightHandThumb1 -24.326973 -0.000000 -32.862282
LeftUpLeg 39.198539 0.480603 20.945461
LeftLeg 79.469235 -0.000000 -0.000000
LeftFoot -36.279041 10.925807 -26.101485
LeftToeBase 8.585201 -0.000000 -0.000000
RightUpLeg 37.606621 8.939413 -24.679744
RightLeg 102.921024 -0.000000 -0.000000
RightFoot -4.763087 -10.952790 4.925231
RightToeBase -27.609988 -0.000000 0.000000
1228
root 7.501367 24.999177 -1.612266 -51.081878 84.238774 40.056768
Spine -42.333040 -7.995372 0.362895
Head -99.050579 15.458621 17.332221
LeftShoulder -38.794637 20.067999 51.262625
LeftArm 125.846397 -50.547540 -130.004155
LeftForeArm 45.567342 -0.000000 64.831767
LeftHand -34.383070 0.000000 119.719768
LeftHandThumb1 -26.253704 0.000000 33.147579
RightShoulder -18.585507 36.804146 -39.553398
RightArm 202.516379 118.322783 197.252410
RightForeArm -46.913776 -0.000000 61.034363
RightHand -7.769550 -0.000000 -83.583652
RightHandThumb1 -24.326973 -0.000000 -32.862282
LeftUpLeg 39.463118 0.363653 20.993077
LeftLeg 79.360027 -0.000000 -0.000000
LeftFoot -36.267496 10.896956 -26.194690
LeftToeBase 8.511495 -0.000000 -0.000000
RightUpLeg 38.041388 8.988976 -24.683997
RightLeg 102.740463 -0.000000 -0.000000
RightFoot -5.483961 -10.856925 4.876318
RightToeBase -26.968520 -0.000000 0.000000
1229
root 7.527984 25.019955 -1.594622 -51.443388 84.235192 39.643060
Spine -42.477764 -7.761749 0.416356
Head -99.221826 15.285434 17.078825
LeftShoulder -38.730494 18.815007 51.049067
LeftArm 124.909925 -50.937573 -127.973115
LeftForeArm 45.525744 0.000000 63.912558
LeftHand -34.359819 0.000000 119.853591
LeftHandThumb1 -26.253704 0.000000 33.147579
RightShoulder -18.806207 36.104204 -39.995465
RightArm 203.005194 117.951374 198.150964
RightForeArm -47.201021 -0.000000 61.293662
RightHand -8.076478 -0.000000 -82.984823
RightHandThumb1 -24.326973 -0.000000 -32.862282
LeftUpLeg 39.502565 0.277783 20.961050
LeftLeg 79.277285 -0.000000 -0.000000
LeftFoot -36.255524 10.909562 -26.171081
LeftToeBase 8.548355 -0.000000 -0.000000
RightUpLeg 38.289276 8.897038 -24.787684
RightLeg 102.562521 -0.000000 -0.000000
RightFoot -6.123114 -10.861894 4.754637
RightToeBase -26.720646 -0.000000 0.000000
1230
root 7.561300 25.045305 -1.575968 -51.962071 84.187183 39.171051
Spine -42.507755 -7.632967 0.424670
Head -99.219164 15.179433 17.196508
LeftShoulder -38.524182 20.713078 51.268452
LeftArm 125.572913 -50.570327 -130.405897
LeftForeArm 45.264225 -0.000000 64.570965
LeftHand -34.843770 -0.000000 119.473200
LeftHandThumb1 -26.253704 0.000000 33.147579
RightShoulder -18.402251 37.699679 -39.346382
RightArm 202.052498 119.654117 195.187986
RightForeArm -46.612592 -0.000000 60.320146
RightHand -8.239610 -0.000000 -83.448418
RightHandThumb1 -24.326973 -0.000000 -32.862282
LeftUpLeg 39.677665 0.177028 20.997584
LeftLeg 79.165293 -0.000000 -0.000000
LeftFoot -36.248856 10.887343 -26.179558
LeftToeBase 8.559459 -0.000000 -0.000000
RightUpLeg 38.650033 8.853183 -24.865409
RightLeg 102.369671 -0.000000 -0.000000
RightFoot -6.831251 -10.854603 4.992939
RightToeBase -26.324478 -0.000000 0.000000
1231
root 7.593637 25.074778 -1.560962 -52.089355 84.158464 39.134209
Spine -42.504106 -7.708721 0.492265
Head -99.137493 15.443811 17.411824
LeftShoulder -38.552725 22.652254 51.599382
LeftArm 125.965585 -50.152436 -132.563402
LeftForeArm 44.612324 -0.000000 65.158674
LeftHand -35.045839 -0.000000 119.234369
LeftHandThumb1 -26.253704 0.000000 33.147579
RightShoulder -17.591752 38.514003 -38.597036
RightArm 200.832453 120.450829 192.799361
RightForeArm -46.028724 -0.000000 59.871463
RightHand -8.310236 -0.000000 -83.225861
RightHandThumb1 -24.326973 -0.000000 -32.862282
LeftUpLeg 39.915010 0.088789 20.983392
LeftLeg 79.032422 -0.000000 -0.000000
LeftFoot -36.232038 10.857918 -26.213654
LeftToeBase 8.570816 -0.000000 -0.000000
RightUpLeg 39.045292 8.865905 -25.027569
RightLeg 102.143187 -0.000000 -0.000000
RightFoot -7.468958 -10.741954 5.343378
RightToeBase -26.423036 -0.000000 0.000000
1232
root 7.621375 25.101462 -1.541834 -52.249057 84.099462 39.069390
Spine -42.480528 -7.798550 0.602121
Head -99.088637 15.757718 17.548061
LeftShoulder -38.469076 24.894085 52.055076
LeftArm 126.440803 -49.739404 -135.261462
LeftForeArm 43.862577 -0.000000 66.028980
LeftHand -35.333624 -0.000000 118.519641
LeftHandThumb1 -26.253704 0.000000 33.147579
RightShoulder -16.961168 38.945789 -37.958251
RightArm 200.428177 120.814748 191.558701
RightForeArm -45.662434 0.000000 59.517575
RightHand -8.344488 -0.000000 -83.007629
RightHandThumb1 -24.326973 -0.000000 -32.862282
LeftUpLeg 40.148560 0.007006 21.014620
LeftLeg 78.906088 -0.000000 -0.000000
LeftFoot -36.195154 10.757287 -26.291816
LeftToeBase 8.557580 -0.000000 -0.000000
RightUpLeg 39.398330 8.887957 -25.155156
RightLeg 101.957595 -0.000000 -0.000000
RightFoot -8.097680 -10.674016 5.629402
RightToeBase -25.937806 -0.000000 0.000000
